name processed_emg_signals
nRows=74
nColumns=7
 
endheader
time	LGLTMED	LRF	LADDLONG	LST	LTA	LGM
0.45	0.1180906613085841	0.227889339814913	0.6387061234656125	0.0876219876542298	0.2965937870687861	0.0532142895309623
0.451	0.1178448326931365	0.2283653687796612	0.6357552871440955	0.0863925271508275	0.2956283993341109	0.0533316616897728
0.452	0.1175924988137889	0.2288573065008217	0.6328062990406699	0.0851557779218803	0.294665678034683	0.0534358094537592
0.453	0.1173335711113533	0.2293647465225734	0.6298604964592451	0.0839110785340327	0.2937072921004171	0.053527014044464
0.454	0.117067979154083	0.2298872607670613	0.6269192648429394	0.0826577447356921	0.2927548322411462	0.0536055621142779
0.455	0.1167956711701369	0.2304244001897756	0.6239840373725286	0.0813950718770879	0.2918098090878397	0.0536717448815112
0.456	0.1165166145197146	0.2309756954721768	0.6210562942125991	0.0801223374237935	0.2908736515621066	0.053725857295447
0.457	0.116230796105011	0.2315406577495752	0.6181375614172442	0.0788388035598001	0.2899477054731088	0.0537681972327321
0.458	0.1159382227160117	0.2321187793726635	0.6152294095102032	0.0775437198761134	0.2890332323403741	0.0537990647263879
0.459	0.1156389213102345	0.232709534701247	0.6123334517571167	0.0762363261407326	0.2881314084403763	0.0538187612285165
0.46	0.1153329392243728	0.2333123809287691	0.609451342147982	0.0749158551457205	0.2872433240742772	0.0538275889076343
0.461	0.1150203443163556	0.2339267589369216	0.6065847731082784	0.0735815356269653	0.2863699830538822	0.0538258499813613
0.462	0.1147012250363016	0.2345520941797001	0.6037354729567848	0.0722325952520469	0.28551230240244	0.053813846085026
0.463	0.1143756904257503	0.2351877975962855	0.6009052031264452	0.0708682636714683	0.284671112266422	0.0537918776765732
0.464	0.1140438700449566	0.2358332665519269	0.5980957551642528	0.0694877756283282	0.283847156033831	0.0537602434779606
0.465	0.1137059138288769	0.2364878858063396	0.5953089475250045	0.0680903741213332	0.2830410906541089	0.0537192399531251
0.466	0.1133619918729882	0.2371510285084785	0.5925466221734954	0.0666753136158772	0.2822534871542912	0.0536691608224218
0.467	0.1130122941507134	0.2378220572172265	0.589810641009538	0.0652418632977041	0.2814848313457033	0.0536102966133232
0.468	0.1126570301646502	0.2385003249471072	0.58710288212956	0.0637893103635857	0.2807355247151588	0.0535429342470935
0.46900000000000003	0.1122964285342223	0.2391851762379185	0.5844252359375244	0.0623169633431545	0.2800058854942333	0.0534673566609918
0.47000000000000003	0.1119307365226185	0.2398759482478179	0.5817796011186167	0.0608241554460824	0.2792961498996902	0.0533838424655251
0.47100000000000003	0.1115602195061141	0.2405719718680461	0.5791678804886887	0.0593102479285812	0.2786064735373941	0.0532926656360891
0.47200000000000003	0.1111851603887479	0.241272572858466	0.5765919767340429	0.0577746334731668	0.2779369329612658	0.0531940952382505
0.47300000000000003	0.1108058589654729	0.2419770730018677	0.5740537880565135	0.0562167395755495	0.2772875273780417	0.0530883951857391
0.47400000000000003	0.1104226312364778	0.2426847912751811	0.5715552037403225	0.0546360319323774	0.2766581804881828	0.0529758240300977
0.47500000000000003	0.1100358086755034	0.2433950450355064	0.5690980996567213	0.0530320178235039	0.2760487424531778	0.0528566347807802
0.47600000000000003	0.1096457374546088	0.2441071512182388	0.5666843337235861	0.0514042494824012	0.2754589919798041	0.0527310747543792
0.47700000000000004	0.1092527776280508	0.2448204275449756	0.564315741336182	0.0497523274483262	0.2748886385124717	0.0525993854516043
0.47800000000000004	0.1088573022777182	0.2455341937383623	0.5619941307854721	0.0480759038939319	0.2743373245253263	0.0524618024604825
0.47900000000000004	0.1084596966225931	0.2462477727410167	0.5597212786796775	0.0463746859220343	0.2738046279061706	0.0523185553842947
0.48	0.1080603570947031	0.2469604919354635	0.5574989253841433	0.0446484388254679	0.2732900644243667	0.052169867792682
0.481	0.1076596903837322	0.2476716843613932	0.5553287704943247	0.0428969893041306	0.2727930902747434	0.0520159571943848
0.482	0.1072581124526626	0.2483806899262712	0.5532124683557689	0.0411202286335057	0.2723131046893672	0.0518570350300292
0.483	0.1068560475264341	0.2490868566048651	0.5511516236446444	0.039318115779203	0.2718494526087487	0.051693306683367
0.484	0.1064539270558335	0.2497895416228109	0.5491477870218235	0.0374906804521772	0.2714014274038379	0.0515249715093584
0.485	0.1060521886589706	0.2504881126192994	0.5472024508731756	0.0356380260995437	0.2709682736399705	0.0513522228774898
0.486	0.1056512750425914	0.2511819487842535	0.5453170451487892	0.0337603328258601	0.2705491898737946	0.0511752482287094
0.487	0.1052516329059991	0.2518704419649873	0.5434929333144732	0.0318578602398996	0.2701433314741353	0.0509942291443287
0.488	0.1048537118299954	0.2525529977382929	0.5417314084296583	0.029930950221922	0.2697498134576724	0.0508093414252705
0.489	0.1044579631535788	0.253229036443955	0.5400336893659821	0.0279800296064406	0.2693677133302642	0.0506207551800161
0.49	0.1040648388411158	0.2538979941760103	0.538400917180862	0.0260056127754888	0.2689960739248502	0.0504286349197034
0.491	0.1036747903428448	0.254559323728888	0.5368341516600758	0.0240083041574084	0.2686339062273548	0.0502331396588977
0.492	0.1032882674517102	0.2552124954957873	0.535334368042251	0.0219888006261014	0.2682801921828643	0.0500344230207081
0.493	0.1029057171595838	0.25585699831736	0.5339024539376392	0.0199478937957349	0.2679338874754576	0.049832633345096
0.494	0.1025275825157593	0.2564923402789428	0.5325392064519	0.0178864722058795	0.2675939242762158	0.0496279137994258
0.495	0.1021543014906126	0.2571180494548961	0.5312453295255037	0.0158055233921005	0.267259213954865	0.0494204024904751
0.496	0.1017863058472298	0.2577336745989864	0.530021431496757	0.0137061358369998	0.2669286497510716	0.0492102325773679
0.497	0.1014240200237576	0.2583387857800012	0.5288680228969642	0.0115895007967792	0.2666011094020816	0.0489975323849329
0.498	0.1010678600291103	0.2589329749621074	0.5277855144844512	0.0094569139983112	0.2662754577240556	0.048782425517188
0.499	0.1007182323547268	0.2595158565297217	0.5267742155239321	0.007309777201876	0.2659505491449742	0.0485650309706798
0.5	0.100375532905144	0.2600870677565743	0.5258343323165624	0.0051495996246646	0.2656252301873056	0.0483454632475638
0.501	0.1000401459502261	0.2606462692185357	0.5249659669849472	0.0029779992204072	0.2652983418985237	0.0481238324683611
0.502	0.0997124431018444	0.261193145149929	0.5241691165161292	0.0007967038104286	0.2649687222274382	0.0479002444843693
0.503	0.0993927823180034	0.2617274037433438	0.5234436720646314	0.0013924479383706	0.2646352083439089	0.0476748009896967
0.504	0.0990815069369397	0.2622487773929094	0.5227894185164876	0.0035875056931166	0.264296638898955	0.0474475996328276
0.505	0.0987789447438733	0.2627570228813953	0.5222060343139769	0.0057864067966053	0.2639518562215951	0.047218734127612
0.506	0.0984854070726155	0.2632519215112979	0.5216930915398231	0.007986975775304	0.2635997084480208	0.0469882943635609
0.507	0.0982011879441409	0.263733279180069	0.5212500562592519	0.0101869240180388	0.2632390515782508	0.0467563665153637
0.508	0.0979265632438889	0.2642009264001167	0.5208762891179389	0.0123838496295064	0.2628687514552961	0.0465230331516339
0.509	0.0976617899393728	0.2646547182642726	0.5205710461952544	0.0145752374627229	0.2624876856619569	0.0462883733428896
0.51	0.097407105339326	0.2650945343578946	0.5203334801116307	0.0167584593342685	0.2620947453306825	0.0460524627688187
0.511	0.0971627263954665	0.2655202786183632	0.5201626413895005	0.0189307744261088	0.2616888368624321	0.0458153738248335
0.512	0.0969288490478602	0.2659318791428661	0.5200574800665686	0.0210893298774238	0.2612688835511486	0.0455771757279507
0.513	0.09670564761449	0.2663292879449018	0.5200168475597701	0.0232311615697108	0.2608338271111729	0.0453379346219394
0.514	0.0964932742258013	0.2667124806600665	0.5200394987771324	0.0253531951081046	0.2603826291055483	0.0450977136816867
0.515	0.09629185830474	0.2670814562014266	0.5201240944737614	0.0274522470015981	0.259914272273727	0.0448565732166755
0.516	0.0961015060929576	0.26743623636512	0.5202692038466679	0.0295250260446008	0.2594277617577272	0.0446145707734504
0.517	0.0959223002235732	0.2677768653866684	0.5204733073625244	0.0315681349019581	0.2589221262261885	0.0443717612369646
0.518	0.095754299341059	0.2681034094491722	0.5207347998107718	0.0335780718994498	0.258396418896118	0.0441281969306823
0.519	0.0955975377686262	0.2684159561443814	0.5210519935742105	0.0355512330214897	0.2578497184524356	0.0438839277154202
0.52	0.0954520252234506	0.268714613888716	0.5214231221082646	0.0374839141176326	0.2572811298657432	0.0436390010869197
0.521	0.0953177465803372	0.2689995112962168	0.5218463436197671	0.0393723133191714	0.2566897851091152	0.04339346227229
0.522	0.0951946616841309	0.2692707965117956	0.5223197449340989	0.0412125336669448	0.2560748437752187	0.0431473543255221
0.523	0.0950827052116081	0.2695286365085502	0.5228413455400096	0.0430005859511048	0.2554354935958524	0.042900718222317
